<svg xmlns="http://www.w3.org/2000/svg" xmlns:xlink="http://www.w3.org/1999/xlink"><symbol viewBox="0 0 44 44" fill="none" id="icon-arrow" xmlns="http://www.w3.org/2000/svg"><path d="M22 44C9.85 44 0 34.15 0 22S9.85 0 22 0s22 9.85 22 22-9.85 22-22 22Zm0-2c11.046 0 20-8.954 20-20S33.046 2 22 2 2 10.954 2 22s8.954 20 20 20ZM10.09 21.505l.707-.708 10.495-10.504.708.706.707.708-8.79 8.798L32 20.5v2l-18.082.004 8.789 8.789-1.414 1.414-11.202-11.202Z" fill="currentColor"/></symbol><symbol viewBox="0 0 20 20" fill="none" id="icon-arrow-acc"><path d="m14.501 8-5.032 4.833L4.834 8" stroke="currentColor" stroke-width="1.45" stroke-linecap="round" stroke-linejoin="round"/></symbol><symbol viewBox="0 0 21 21" fill="none" id="icon-arrow-down" xmlns="http://www.w3.org/2000/svg"><path d="m6 8.176 5.033 4.833 4.634-4.833" stroke="currentColor" stroke-width="1.45" stroke-linecap="round" stroke-linejoin="round"/></symbol><symbol viewBox="0 0 44 44" fill="none" id="icon-arrow-right" xmlns="http://www.w3.org/2000/svg"><path d="M22 0c12.15 0 22 9.85 22 22s-9.85 22-22 22S0 34.15 0 22 9.85 0 22 0Zm0 2C10.954 2 2 10.954 2 22s8.954 20 20 20 20-8.954 20-20S33.046 2 22 2Zm11.91 20.495-.707.708-10.495 10.504-.708-.706-.707-.708 8.79-8.798L12 23.5v-2l18.082-.004-8.789-8.789 1.414-1.414 11.202 11.202Z" fill="currentColor"/></symbol><symbol viewBox="0 0 8 15" fill="none" id="icon-btn-arrow" xmlns="http://www.w3.org/2000/svg"><path d="M2.913 7.055.013.373C-.048.235.126.113.244.212l7.403 6.21c.464.388.47 1.079.013 1.475L.476 14.14c-.116.1-.294-.02-.234-.16l2.672-6.165a.951.951 0 0 0 0-.76Z" fill="currentColor"/></symbol><symbol viewBox="0 0 24 13" fill="none" id="icon-catalog-btn-arrow" xmlns="http://www.w3.org/2000/svg"><path d="M1 6.32h22m0 0-5-5m5 5-5 5" stroke="currentColor" stroke-width="2" stroke-linecap="round" stroke-linejoin="round"/></symbol><symbol viewBox="0 0 61 60" fill="none" id="icon-categories-btn" xmlns="http://www.w3.org/2000/svg"><path d="M30.956 0c16.569 0 30 13.431 30 30 0 16.569-13.431 30-30 30-16.569 0-30-13.431-30-30 0-16.569 13.431-30 30-30Zm0 2c-15.464 0-28 12.536-28 28s12.536 28 28 28 28-12.536 28-28-12.536-28-28-28Zm9.675 38.844h-2V23.77L21.187 41.544l-.713-.7-.713-.701 17.487-17.818H19.39v-2h21.24v20.519Z" fill="currentColor"/></symbol><symbol viewBox="0 0 24 24" fill="none" id="icon-cross"><path d="M18 6 6 18M6 6l12 12" stroke="currentColor" stroke-width="2" stroke-linecap="round" stroke-linejoin="round"/></symbol><symbol viewBox="0 0 60 19" fill="none" id="icon-digital-bakery" xmlns="http://www.w3.org/2000/svg"><path d="M30.518 17.42a.291.291 0 0 0 .091-.213v-2.389a.291.291 0 0 0-.09-.212l-1.033-1.032a.291.291 0 0 0-.213-.091h-1.497c-.203 0-.304-.102-.304-.304v-1.417c0-.202-.101-.303-.303-.303h-1.215c-.202 0-.304.1-.304.303v6.477c0 .203.102.304.304.304h3.32c.08 0 .151-.03.212-.091l1.032-1.033Zm-1.73-.699c0 .203-.102.304-.304.304h-.708c-.203 0-.304-.101-.304-.304v-1.417c0-.202.101-.303.304-.303h.708c.202 0 .304.1.304.303v1.417ZM57.23 18.558c-.181 0-.272-.09-.272-.272v-2.18l-1.326-.871a.145.145 0 0 1-.063-.082.343.343 0 0 1-.019-.109v-2.57c0-.181.091-.272.273-.272h1.09c.181 0 .272.09.272.273v1.952c0 .181.09.272.272.272h.636c.182 0 .272-.09.272-.272v-1.952c0-.182.091-.273.273-.273h1.09c.181 0 .272.09.272.273v2.57a.343.343 0 0 1-.018.108.145.145 0 0 1-.064.082l-1.326.872v2.179c0 .181-.09.272-.272.272h-1.09ZM54.276 18.286c0 .181-.09.272-.272.272h-1.09c-.181 0-.272-.09-.272-.272V16.65c0-.181-.09-.272-.273-.272h-.907c-.182 0-.273.09-.273.272v1.635c0 .181-.09.272-.272.272h-1.09c-.181 0-.272-.09-.272-.272v-5.811c0-.182.09-.273.272-.273h3.25c.073 0 .137.027.191.082l.927.926a.261.261 0 0 1 .081.19v1.78a.261.261 0 0 1-.081.191l-.164.163c-.109.11-.109.218 0 .327l.164.164a.261.261 0 0 1 .081.19v2.07Zm-3.087-3.541c0 .181.09.272.273.272h.907c.182 0 .273-.09.273-.272v-.908c0-.182-.09-.273-.273-.273h-.907c-.182 0-.273.091-.273.273v.908ZM48.009 17.196c.181 0 .272.091.272.273v.817c0 .181-.09.272-.272.272h-3.27c-.18 0-.271-.09-.271-.272v-5.811c0-.182.09-.273.272-.273h3.178c.182 0 .272.09.272.273v.817c0 .181-.09.272-.272.272h-1.544c-.181 0-.272.091-.272.273v.59c0 .181.09.272.272.272h1.362c.182 0 .273.091.273.273v.817c0 .181-.091.272-.273.272h-1.362c-.181 0-.272.091-.272.273v.59c0 .181.09.272.272.272h1.635ZM40.102 18.286c0 .181-.091.272-.273.272h-1.09c-.18 0-.272-.09-.272-.272v-5.811c0-.182.091-.273.273-.273h1.09c.18 0 .272.09.272.273v1.952c0 .181.09.272.272.272h.182c.09 0 .151-.021.181-.063.03-.049.06-.118.091-.21l.726-1.951c.03-.091.061-.158.091-.2.03-.049.091-.073.182-.073h1.09c.09 0 .163.024.218.073.06.042.078.109.054.2l-.963 2.905.963 2.906c.024.09.006.16-.054.209a.346.346 0 0 1-.218.063h-1.09c-.09 0-.151-.021-.182-.063a1.018 1.018 0 0 1-.09-.21l-.727-1.951a.788.788 0 0 0-.09-.2c-.031-.049-.091-.073-.182-.073h-.182c-.181 0-.272.091-.272.273v1.952ZM35.724 12.202c.073 0 .136.027.19.082l.927.926a.262.262 0 0 1 .082.19v4.886c0 .181-.091.272-.273.272h-1.09c-.181 0-.272-.09-.272-.272V17.05c0-.182-.09-.272-.272-.272h-.908c-.182 0-.273.09-.273.272v1.235c0 .181-.09.272-.272.272h-1.09c-.181 0-.272-.09-.272-.272V13.4c0-.073.027-.136.082-.191l.926-.926a.261.261 0 0 1 .19-.082h2.325Zm-1.889 2.942c0 .182.091.272.273.272h.908c.181 0 .272-.09.272-.272v-1.307c0-.182-.09-.273-.272-.273h-.908c-.182 0-.273.091-.273.273v1.307ZM22.628 8.6a.291.291 0 0 1-.09-.213V5.998c0-.08.03-.152.09-.212l1.033-1.033a.291.291 0 0 1 .212-.09h1.498c.203 0 .304-.102.304-.304V2.942c0-.203.1-.304.303-.304h1.215c.202 0 .303.101.303.304v6.477c0 .202-.1.303-.303.303h-3.32a.291.291 0 0 1-.212-.09l-1.033-1.033Zm1.731-.7c0 .203.101.304.304.304h.708c.203 0 .304-.1.304-.303V6.484c0-.202-.102-.304-.304-.304h-.708c-.203 0-.304.102-.304.304V7.9ZM55.799 8.316c.181 0 .272.091.272.273v.817c0 .182-.09.272-.272.272h-3.087c-.182 0-.273-.09-.273-.272V3.595c0-.182.091-.273.273-.273h1.09c.18 0 .272.091.272.273v4.449c0 .182.09.272.272.272h1.453ZM49.696 3.322c.073 0 .136.028.19.082l.927.926a.261.261 0 0 1 .082.19v4.886c0 .182-.091.272-.273.272h-1.09c-.18 0-.272-.09-.272-.272V8.17c0-.182-.09-.272-.272-.272h-.908c-.182 0-.273.09-.273.272v1.235c0 .182-.09.272-.272.272h-1.09c-.181 0-.272-.09-.272-.272V4.52c0-.073.027-.136.082-.19l.926-.927a.261.261 0 0 1 .19-.082h2.325Zm-1.889 2.942c0 .182.091.273.273.273h.908c.181 0 .272-.091.272-.273V4.957c0-.182-.09-.273-.272-.273h-.908c-.182 0-.273.091-.273.273v1.307ZM42.355 9.678c-.182 0-.272-.09-.272-.272v-4.45c0-.18-.091-.272-.273-.272h-.636c-.181 0-.272-.09-.272-.272v-.817c0-.182.09-.273.273-.273h3.45c.181 0 .272.091.272.273v.817c0 .181-.09.272-.272.272h-.636c-.181 0-.272.091-.272.273v4.449c0 .182-.09.272-.273.272h-1.09ZM38.266 9.678c-.181 0-.272-.09-.272-.272V3.595c0-.182.09-.273.272-.273h1.09c.181 0 .272.091.272.273v5.81c0 .183-.09.273-.272.273h-1.09ZM34.457 7.181c-.145 0-.218-.072-.218-.218v-.871c0-.182.09-.273.272-.273h1.853c.181 0 .272.091.272.273V8.48a.261.261 0 0 1-.082.19l-.926.927a.261.261 0 0 1-.19.081h-2.153a.261.261 0 0 1-.19-.081l-.926-.927a.262.262 0 0 1-.082-.19V4.52c0-.072.027-.135.082-.19l.926-.926a.261.261 0 0 1 .19-.082h2.488c.182 0 .273.091.273.273v.817c0 .181-.091.272-.273.272h-1.78c-.18 0-.272.091-.272.273v3.087c0 .182.091.272.273.272h.735c.182 0 .273-.09.273-.272v-.681c0-.121-.06-.182-.182-.182h-.363ZM29.36 9.678c-.181 0-.272-.09-.272-.272V3.595c0-.182.09-.273.272-.273h1.09c.182 0 .273.091.273.273v5.81c0 .183-.091.273-.273.273h-1.09ZM0 4.458A4.033 4.033 0 0 1 4.033.425h10.084a4.033 4.033 0 0 1 4.033 4.033v10.083a4.033 4.033 0 0 1-4.033 4.034H4.033A4.033 4.033 0 0 1 0 14.54V4.458Z" fill="#070E2A"/><path d="M2.032 10.752a.359.359 0 0 1-.112-.262V7.547c0-.1.037-.187.112-.261l1.272-1.272a.359.359 0 0 1 .262-.113H5.41c.25 0 .375-.124.375-.374V3.781c0-.25.124-.374.374-.374h1.496c.25 0 .374.125.374.374v7.981c0 .25-.125.374-.374.374h-4.09a.359.359 0 0 1-.262-.112l-1.272-1.272Zm2.132-.86c0 .25.125.374.374.374h.873c.25 0 .375-.125.375-.374V8.146c0-.25-.125-.374-.375-.374h-.873c-.249 0-.374.125-.374.374v1.746ZM15.768 14.21a.359.359 0 0 0 .112-.263v-2.943a.36.36 0 0 0-.112-.262L14.496 9.47a.359.359 0 0 0-.262-.112h-1.846c-.25 0-.374-.124-.374-.374V7.238c0-.25-.124-.374-.374-.374h-1.496c-.25 0-.374.125-.374.374v7.981c0 .25.124.374.374.374h4.09c.1 0 .187-.037.262-.112l1.272-1.272Zm-2.133-.861c0 .25-.124.374-.374.374h-.873c-.25 0-.374-.125-.374-.374v-1.746c0-.25.125-.374.374-.374h.873c.25 0 .374.125.374.374v1.746Z" fill="#fff"/></symbol><symbol viewBox="0 0 17 17" fill="none" id="icon-download" xmlns="http://www.w3.org/2000/svg"><path d="M6.5 5.833h-2a2 2 0 0 0-2 2V12.5a2 2 0 0 0 2 2h9.333a2 2 0 0 0 2-2V7.833a2 2 0 0 0-2-2h-2" stroke="currentColor" stroke-width="1.5" stroke-linecap="round"/><path d="m7.167 9.167 1.292 1.293a1 1 0 0 0 1.415 0l1.292-1.293M9.166 10.5v-8" stroke="currentColor" stroke-width="1.5" stroke-linecap="round"/></symbol><symbol viewBox="0 0 60 60" fill="none" id="icon-plus"><rect x=".738" y=".738" width="57.577" height="57.577" rx="28.788" stroke="currentColor" stroke-width="1.476"/><path d="m29.63 40.6-.206-21.941M18.556 29.527l21.94-.205" stroke="currentColor" stroke-width="1.476"/></symbol><symbol viewBox="0 0 22 23" fill="none" id="icon-search" xmlns="http://www.w3.org/2000/svg"><path d="M10 18.176a8 8 0 1 0 0-16 8 8 0 0 0 0 16ZM20 20.176l-4-4" stroke="currentColor" stroke-width="2" stroke-linecap="round" stroke-linejoin="round"/></symbol><symbol viewBox="0 0 18 15" fill="none" id="icon-telegram" xmlns="http://www.w3.org/2000/svg"><path d="M16.465.463s1.666-.635 1.527.907c-.047.635-.463 2.857-.787 5.26l-1.11 7.12s-.092 1.043-.925 1.224c-.832.181-2.081-.635-2.312-.816-.185-.136-3.47-2.177-4.626-3.175-.324-.272-.694-.816.047-1.45l4.856-4.535c.555-.544 1.11-1.814-1.202-.272L5.457 9.034s-.74.453-2.128.045L.323 8.172s-1.11-.68.786-1.36C5.735 4.68 11.424 2.504 16.465.463Z" fill="currentColor"/></symbol><symbol viewBox="0 0 100 101" fill="none" id="icon-video-play" xmlns="http://www.w3.org/2000/svg"><path d="M50 .5c27.614 0 50 22.386 50 50s-22.386 50-50 50-50-22.386-50-50S22.386.5 50 .5Zm-7.813 31.66c-2.083-1.164-4.687.291-4.687 2.62v31.44c0 2.329 2.604 3.784 4.688 2.62l28.124-15.72a2.978 2.978 0 0 0 0-5.24L42.189 32.16Z" fill="#fff" fill-opacity=".5"/></symbol><symbol viewBox="0 0 22 13" fill="none" id="icon-vk" xmlns="http://www.w3.org/2000/svg"><path d="M21.843 11.656c-.018.06-.035.122-.055.182-.092.298-.313.48-.625.483-1.142.007-2.284.017-3.424.003-.599-.008-1.121-.255-1.54-.676-.476-.476-.917-.985-1.384-1.47a4.543 4.543 0 0 0-.611-.556c-.447-.32-.827-.213-1.087.27-.26.484-.287 1.016-.33 1.545-.049.622-.233.818-.846.866-2.714.211-5-.67-6.828-2.702C3.84 8.185 2.84 6.58 1.947 4.908 1.324 3.74.763 2.539.19 1.347-.103.733.096.437.784.43 1.748.425 2.712.436 3.676.425c.513-.007.842.215 1.034.685a18.914 18.914 0 0 0 1.73 3.331c.213.326.438.644.679.951.129.165.288.315.457.44.392.288.687.2.853-.262.078-.218.13-.45.155-.68.106-1.005.116-2.01-.047-3.01-.091-.563-.41-.916-.976-1.041-.299-.066-.316-.14-.124-.374.268-.323.605-.468 1.024-.465 1.092.007 2.185.003 3.275.003.682 0 .993.297 1.005.98.009.574.002 1.149.002 1.724 0 .716-.01 1.431.008 2.147.006.229.055.468.14.68.199.497.584.563.958.181a8.754 8.754 0 0 0 1.527-2.086c.436-.84.833-1.702 1.228-2.564.237-.519.395-.644.969-.644 1.127 0 2.255 0 3.382.005.346.001.678.053.89.381v.383c-.35 1.09-1.027 1.99-1.699 2.894-.482.647-.97 1.291-1.448 1.943-.601.818-.567 1.159.164 1.867.505.489 1.024.961 1.508 1.47.597.63 1.213 1.255 1.474 2.122v.17Z" fill="currentColor"/></symbol><symbol viewBox="0 0 19 15" id="icon-youtube" xmlns="http://www.w3.org/2000/svg"><path fill="currentColor" d="M13.9 0H5.1C2.3 0 0 1.5 0 3.3v8.4C0 13.5 2.3 15 5.1 15H14c2.8 0 5.1-1.5 5.1-3.3V3.3C19 1.5 16.7 0 13.9 0zm-1.4 8.6L9 10.5c-.7.5-1.7-.1-1.7-1v-4c0-.9 1-1.5 1.8-1l3.5 2.1c.8.4.7 1.6-.1 2z"/></symbol></svg>