<svg viewBox="0 0 44 44" fill="none" xmlns="http://www.w3.org/2000/svg">
<path d="M22 44C9.84974 44 8.61091e-07 34.1503 1.9233e-06 22C2.98551e-06 9.84973 9.84974 -2.98551e-06 22 -1.9233e-06C34.1503 -8.61091e-07 44 9.84974 44 22C44 34.1503 34.1503 44 22 44ZM22 42C33.0457 42 42 33.0457 42 22C42 10.9543 33.0457 2 22 2C10.9543 2 2 10.9543 2 22C2 33.0457 10.9543 42 22 42ZM10.0908 21.5049L10.7969 20.7969L21.292 10.293L22 10.999L22.707 11.707L13.917 20.5049L32 20.5L32 22.5L13.918 22.5039L22.707 31.293L21.293 32.707L10.0908 21.5049Z" fill="currentColor"/>
</svg>
