<svg viewBox="0 0 61 60" fill="none" xmlns="http://www.w3.org/2000/svg">
<path d="M30.9561 0C47.5246 0 60.9561 13.4315 60.9561 30C60.9561 46.5685 47.5246 60 30.9561 60C14.3875 60 0.956055 46.5685 0.956055 30C0.956055 13.4315 14.3875 0 30.9561 0ZM30.9561 2C15.4921 2 2.95605 14.536 2.95605 30C2.95605 45.464 15.4921 58 30.9561 58C46.42 58 58.9561 45.464 58.9561 30C58.9561 14.536 46.42 2 30.9561 2ZM40.6309 40.8438H38.6309V23.7715L21.1875 41.5439L20.4736 40.8438L19.7607 40.1426L37.248 22.3252H19.3896V20.3252H40.6309V40.8438Z" fill="currentColor"/>
</svg>
