<svg viewBox="0 0 60 19" fill="none" xmlns="http://www.w3.org/2000/svg">
<path d="M30.5183 17.4194C30.579 17.3587 30.6094 17.2878 30.6094 17.2069V14.8185C30.6094 14.7375 30.579 14.6666 30.5183 14.6059L29.486 13.5736C29.4253 13.5129 29.3545 13.4826 29.2735 13.4826H27.7757C27.5733 13.4826 27.4721 13.3814 27.4721 13.179V11.7621C27.4721 11.5597 27.3709 11.4585 27.1685 11.4585H25.954C25.7516 11.4585 25.6504 11.5597 25.6504 11.7621V18.2391C25.6504 18.4415 25.7516 18.5427 25.954 18.5427H29.2735C29.3545 18.5427 29.4253 18.5124 29.486 18.4517L30.5183 17.4194ZM28.7877 16.7211C28.7877 16.9235 28.6865 17.0247 28.4841 17.0247H27.7757C27.5733 17.0247 27.4721 16.9235 27.4721 16.7211V15.3042C27.4721 15.1018 27.5733 15.0006 27.7757 15.0006H28.4841C28.6865 15.0006 28.7877 15.1018 28.7877 15.3042V16.7211Z" fill="#070E2A"/>
<path d="M57.2304 18.5582C57.0488 18.5582 56.958 18.4674 56.958 18.2858V16.1066L55.6323 15.2349C55.602 15.2167 55.5808 15.1895 55.5687 15.1532C55.5566 15.1169 55.5505 15.0805 55.5505 15.0442V12.4746C55.5505 12.2929 55.6413 12.2021 55.8229 12.2021H56.9126C57.0942 12.2021 57.185 12.2929 57.185 12.4746V14.4268C57.185 14.6084 57.2758 14.6992 57.4574 14.6992H58.093C58.2746 14.6992 58.3654 14.6084 58.3654 14.4268V12.4746C58.3654 12.2929 58.4562 12.2021 58.6378 12.2021H59.7274C59.909 12.2021 59.9998 12.2929 59.9998 12.4746V15.0442C59.9998 15.0805 59.9937 15.1169 59.9816 15.1532C59.9695 15.1895 59.9483 15.2167 59.9181 15.2349L58.5924 16.1066V18.2858C58.5924 18.4674 58.5016 18.5582 58.32 18.5582H57.2304Z" fill="#070E2A"/>
<path d="M54.2763 18.2858C54.2763 18.4674 54.1855 18.5582 54.0039 18.5582H52.9143C52.7327 18.5582 52.6419 18.4674 52.6419 18.2858V16.6514C52.6419 16.4698 52.5511 16.379 52.3695 16.379H51.4615C51.2799 16.379 51.1891 16.4698 51.1891 16.6514V18.2858C51.1891 18.4674 51.0983 18.5582 50.9167 18.5582H49.8271C49.6455 18.5582 49.5547 18.4674 49.5547 18.2858V12.4746C49.5547 12.2929 49.6455 12.2021 49.8271 12.2021H53.0778C53.1504 12.2021 53.214 12.2294 53.2684 12.2839L54.1946 13.21C54.2491 13.2645 54.2763 13.3281 54.2763 13.4007V15.1804C54.2763 15.2531 54.2491 15.3166 54.1946 15.3711L54.0312 15.5345C53.9222 15.6435 53.9222 15.7525 54.0312 15.8614L54.1946 16.0249C54.2491 16.0793 54.2763 16.1429 54.2763 16.2155V18.2858ZM51.1891 14.7446C51.1891 14.9262 51.2799 15.017 51.4615 15.017H52.3695C52.5511 15.017 52.6419 14.9262 52.6419 14.7446V13.8366C52.6419 13.655 52.5511 13.5642 52.3695 13.5642H51.4615C51.2799 13.5642 51.1891 13.655 51.1891 13.8366V14.7446Z" fill="#070E2A"/>
<path d="M48.0088 17.1962C48.1904 17.1962 48.2812 17.287 48.2812 17.4686V18.2858C48.2812 18.4674 48.1904 18.5582 48.0088 18.5582H44.7399C44.5583 18.5582 44.4675 18.4674 44.4675 18.2858V12.4746C44.4675 12.2929 44.5583 12.2021 44.7399 12.2021H47.918C48.0996 12.2021 48.1904 12.2929 48.1904 12.4746V13.2918C48.1904 13.4734 48.0996 13.5642 47.918 13.5642H46.3743C46.1927 13.5642 46.1019 13.655 46.1019 13.8366V14.4268C46.1019 14.6084 46.1927 14.6992 46.3743 14.6992H47.7364C47.918 14.6992 48.0088 14.79 48.0088 14.9716V15.7888C48.0088 15.9704 47.918 16.0612 47.7364 16.0612H46.3743C46.1927 16.0612 46.1019 16.152 46.1019 16.3336V16.9238C46.1019 17.1054 46.1927 17.1962 46.3743 17.1962H48.0088Z" fill="#070E2A"/>
<path d="M40.1017 18.2858C40.1017 18.4674 40.0109 18.5582 39.8293 18.5582H38.7397C38.5581 18.5582 38.4673 18.4674 38.4673 18.2858V12.4746C38.4673 12.2929 38.5581 12.2021 38.7397 12.2021H39.8293C40.0109 12.2021 40.1017 12.2929 40.1017 12.4746V14.4268C40.1017 14.6084 40.1925 14.6992 40.3741 14.6992H40.5557C40.6465 14.6992 40.707 14.678 40.7373 14.6356C40.7676 14.5872 40.7978 14.5176 40.8281 14.4268L41.5545 12.4746C41.5848 12.3838 41.6151 12.3172 41.6453 12.2748C41.6756 12.2264 41.7361 12.2021 41.8269 12.2021H42.9165C43.0073 12.2021 43.08 12.2264 43.1345 12.2748C43.195 12.3172 43.2131 12.3838 43.1889 12.4746L42.2264 15.3802L43.1889 18.2858C43.2131 18.3766 43.195 18.4462 43.1345 18.4947C43.08 18.537 43.0073 18.5582 42.9165 18.5582H41.8269C41.7361 18.5582 41.6756 18.537 41.6453 18.4947C41.6151 18.4462 41.5848 18.3766 41.5545 18.2858L40.8281 16.3336C40.7978 16.2428 40.7676 16.1762 40.7373 16.1338C40.707 16.0854 40.6465 16.0612 40.5557 16.0612H40.3741C40.1925 16.0612 40.1017 16.152 40.1017 16.3336V18.2858Z" fill="#070E2A"/>
<path d="M35.724 12.2021C35.7966 12.2021 35.8602 12.2294 35.9147 12.2839L36.8409 13.21C36.8953 13.2645 36.9226 13.3281 36.9226 13.4007V18.2858C36.9226 18.4674 36.8318 18.5582 36.6502 18.5582H35.5606C35.379 18.5582 35.2882 18.4674 35.2882 18.2858V17.0509C35.2882 16.8693 35.1974 16.7785 35.0158 16.7785H34.1077C33.9261 16.7785 33.8353 16.8693 33.8353 17.0509V18.2858C33.8353 18.4674 33.7445 18.5582 33.5629 18.5582H32.4733C32.2917 18.5582 32.2009 18.4674 32.2009 18.2858V13.4007C32.2009 13.3281 32.2282 13.2645 32.2826 13.21L33.2088 12.2839C33.2633 12.2294 33.3269 12.2021 33.3995 12.2021H35.724ZM33.8353 15.1441C33.8353 15.3257 33.9261 15.4165 34.1077 15.4165H35.0158C35.1974 15.4165 35.2882 15.3257 35.2882 15.1441V13.8366C35.2882 13.655 35.1974 13.5642 35.0158 13.5642H34.1077C33.9261 13.5642 33.8353 13.655 33.8353 13.8366V15.1441Z" fill="#070E2A"/>
<path d="M22.6284 8.59907C22.5677 8.53834 22.5374 8.4675 22.5374 8.38654V5.99814C22.5374 5.91718 22.5677 5.84633 22.6284 5.78561L23.6607 4.75334C23.7214 4.69261 23.7923 4.66225 23.8732 4.66225H25.371C25.5735 4.66225 25.6747 4.56105 25.6747 4.35864V2.94179C25.6747 2.73939 25.7759 2.63818 25.9783 2.63818H27.1927C27.3951 2.63818 27.4963 2.73939 27.4963 2.94179V9.41881C27.4963 9.62122 27.3951 9.72243 27.1927 9.72243H23.8732C23.7923 9.72243 23.7214 9.69206 23.6607 9.63134L22.6284 8.59907ZM24.359 7.90076C24.359 8.10317 24.4602 8.20437 24.6626 8.20437H25.371C25.5735 8.20437 25.6747 8.10317 25.6747 7.90076V6.48391C25.6747 6.28151 25.5735 6.1803 25.371 6.1803H24.6626C24.4602 6.1803 24.359 6.28151 24.359 6.48391V7.90076Z" fill="#070E2A"/>
<path d="M55.7988 8.31632C55.9804 8.31632 56.0712 8.40712 56.0712 8.58872V9.40593C56.0712 9.58753 55.9804 9.67833 55.7988 9.67833H52.7116C52.53 9.67833 52.4392 9.58753 52.4392 9.40593V3.59467C52.4392 3.41307 52.53 3.32227 52.7116 3.32227H53.8012C53.9828 3.32227 54.0736 3.41307 54.0736 3.59467V8.04391C54.0736 8.22552 54.1644 8.31632 54.346 8.31632H55.7988Z" fill="#070E2A"/>
<path d="M49.6962 3.32227C49.7688 3.32227 49.8324 3.34951 49.8869 3.40399L50.813 4.33016C50.8675 4.38464 50.8947 4.4482 50.8947 4.52084V9.40593C50.8947 9.58753 50.8039 9.67833 50.6223 9.67833H49.5327C49.3511 9.67833 49.2603 9.58753 49.2603 9.40593V8.17104C49.2603 7.98943 49.1695 7.89863 48.9879 7.89863H48.0799C47.8983 7.89863 47.8075 7.98943 47.8075 8.17104V9.40593C47.8075 9.58753 47.7167 9.67833 47.5351 9.67833H46.4455C46.2639 9.67833 46.1731 9.58753 46.1731 9.40593V4.52084C46.1731 4.4482 46.2003 4.38464 46.2548 4.33016L47.181 3.40399C47.2355 3.34951 47.299 3.32227 47.3717 3.32227H49.6962ZM47.8075 6.26422C47.8075 6.44582 47.8983 6.53662 48.0799 6.53662H48.9879C49.1695 6.53662 49.2603 6.44582 49.2603 6.26422V4.95668C49.2603 4.77508 49.1695 4.68428 48.9879 4.68428H48.0799C47.8983 4.68428 47.8075 4.77508 47.8075 4.95668V6.26422Z" fill="#070E2A"/>
<path d="M42.3549 9.67833C42.1733 9.67833 42.0825 9.58753 42.0825 9.40593V4.95668C42.0825 4.77508 41.9917 4.68428 41.8101 4.68428H41.1745C40.9929 4.68428 40.9021 4.59348 40.9021 4.41188V3.59467C40.9021 3.41307 40.9929 3.32227 41.1745 3.32227H44.6249C44.8065 3.32227 44.8973 3.41307 44.8973 3.59467V4.41188C44.8973 4.59348 44.8065 4.68428 44.6249 4.68428H43.9893C43.8077 4.68428 43.7169 4.77508 43.7169 4.95668V9.40593C43.7169 9.58753 43.6261 9.67833 43.4445 9.67833H42.3549Z" fill="#070E2A"/>
<path d="M38.2663 9.67833C38.0847 9.67833 37.9939 9.58753 37.9939 9.40593V3.59467C37.9939 3.41307 38.0847 3.32227 38.2663 3.32227H39.3559C39.5375 3.32227 39.6283 3.41307 39.6283 3.59467V9.40593C39.6283 9.58753 39.5375 9.67833 39.3559 9.67833H38.2663Z" fill="#070E2A"/>
<path d="M34.4568 7.18131C34.3115 7.18131 34.2389 7.10866 34.2389 6.96338V6.09169C34.2389 5.91009 34.3297 5.81929 34.5113 5.81929H36.3636C36.5452 5.81929 36.636 5.91009 36.636 6.09169V8.47976C36.636 8.5524 36.6088 8.61596 36.5543 8.67044L35.6281 9.59661C35.5737 9.65109 35.5101 9.67833 35.4375 9.67833H33.2855C33.2128 9.67833 33.1493 9.65109 33.0948 9.59661L32.1686 8.67044C32.1142 8.61596 32.0869 8.5524 32.0869 8.47976V4.52084C32.0869 4.4482 32.1142 4.38464 32.1686 4.33016L33.0948 3.40399C33.1493 3.34951 33.2128 3.32227 33.2855 3.32227H35.7734C35.955 3.32227 36.0458 3.41307 36.0458 3.59467V4.41188C36.0458 4.59348 35.955 4.68428 35.7734 4.68428H33.9937C33.8121 4.68428 33.7213 4.77508 33.7213 4.95668V8.04391C33.7213 8.22552 33.8121 8.31632 33.9937 8.31632H34.7292C34.9108 8.31632 35.0016 8.22552 35.0016 8.04391V7.36291C35.0016 7.24184 34.9411 7.18131 34.82 7.18131H34.4568Z" fill="#070E2A"/>
<path d="M29.3605 9.67833C29.1789 9.67833 29.0881 9.58753 29.0881 9.40593V3.59467C29.0881 3.41307 29.1789 3.32227 29.3605 3.32227H30.4501C30.6318 3.32227 30.7226 3.41307 30.7226 3.59467V9.40593C30.7226 9.58753 30.6318 9.67833 30.4501 9.67833H29.3605Z" fill="#070E2A"/>
<path d="M0 4.45812C0 2.23058 1.80578 0.424805 4.03331 0.424805H14.1166C16.3441 0.424805 18.1499 2.23058 18.1499 4.45812V14.5414C18.1499 16.7689 16.3441 18.5747 14.1166 18.5747H4.03331C1.80578 18.5747 0 16.7689 0 14.5414V4.45812Z" fill="#070E2A"/>
<path d="M2.03191 10.7523C1.95709 10.6775 1.91968 10.5902 1.91968 10.4904V7.54741C1.91968 7.44764 1.95709 7.36035 2.03191 7.28553L3.30389 6.01354C3.37872 5.93872 3.46601 5.90131 3.56577 5.90131H5.41139C5.6608 5.90131 5.78551 5.77661 5.78551 5.5272V3.78134C5.78551 3.53193 5.91021 3.40723 6.15962 3.40723H7.65607C7.90548 3.40723 8.03018 3.53193 8.03018 3.78134V11.7624C8.03018 12.0118 7.90548 12.1365 7.65607 12.1365H3.56577C3.46601 12.1365 3.37872 12.0991 3.30389 12.0243L2.03191 10.7523ZM4.16435 9.89184C4.16435 10.1413 4.28906 10.266 4.53847 10.266H5.41139C5.6608 10.266 5.78551 10.1413 5.78551 9.89184V8.14599C5.78551 7.89658 5.6608 7.77187 5.41139 7.77187H4.53847C4.28906 7.77187 4.16435 7.89658 4.16435 8.14599V9.89184Z" fill="white"/>
<path d="M15.7678 14.2092C15.8426 14.1344 15.8801 14.0471 15.8801 13.9473V11.0043C15.8801 10.9046 15.8426 10.8173 15.7678 10.7424L14.4958 9.47045C14.421 9.39563 14.3337 9.35822 14.234 9.35822H12.3883C12.1389 9.35822 12.0142 9.23352 12.0142 8.98411V7.23825C12.0142 6.98884 11.8895 6.86414 11.6401 6.86414H10.1437C9.89426 6.86414 9.76955 6.98884 9.76955 7.23825V15.2193C9.76955 15.4687 9.89426 15.5934 10.1437 15.5934H14.234C14.3337 15.5934 14.421 15.556 14.4958 15.4812L15.7678 14.2092ZM13.6354 13.3488C13.6354 13.5982 13.5107 13.7229 13.2613 13.7229H12.3883C12.1389 13.7229 12.0142 13.5982 12.0142 13.3488V11.6029C12.0142 11.3535 12.1389 11.2288 12.3883 11.2288H13.2613C13.5107 11.2288 13.6354 11.3535 13.6354 11.6029V13.3488Z" fill="white"/>
</svg>
