<svg viewBox="0 0 18 15" fill="none" xmlns="http://www.w3.org/2000/svg">
<path d="M16.4654 0.462978C16.4654 0.462978 18.1306 -0.171879 17.9918 1.36992C17.9455 2.00478 17.5293 4.22678 17.2055 6.63019L16.0954 13.7497C16.0954 13.7497 16.0029 14.7926 15.1703 14.974C14.3377 15.1554 13.0889 14.3392 12.8576 14.1578C12.6726 14.0218 9.38863 11.9811 8.23226 10.9835C7.90848 10.7114 7.53845 10.1672 8.27851 9.53238L13.1352 4.9977C13.6902 4.45353 14.2453 3.18381 11.9326 4.72562L5.45705 9.03359C5.45705 9.03359 4.71699 9.48704 3.3294 9.07893L0.322895 8.17199C0.322895 8.17199 -0.787196 7.49179 1.10921 6.81155C5.73459 4.68023 11.4238 2.50357 16.4654 0.462978Z" fill="currentColor"/>
</svg>
