<svg viewBox="0 0 22 13" fill="none" xmlns="http://www.w3.org/2000/svg">
<path d="M21.8432 11.6562C21.8249 11.7163 21.808 11.7777 21.7884 11.8378C21.6956 12.1356 21.4749 12.3185 21.1626 12.3211C20.0209 12.3276 18.8792 12.3381 17.7388 12.3237C17.1405 12.3159 16.618 12.069 16.1987 11.6484C15.7232 11.1716 15.2817 10.6634 14.8153 10.1775C14.6246 9.97891 14.426 9.78166 14.2039 9.62229C13.7572 9.30224 13.3771 9.40936 13.1171 9.89139C12.8571 10.376 12.8297 10.9077 12.7879 11.4367C12.7383 12.0585 12.5541 12.2545 11.9414 12.3028C9.22692 12.5144 6.94089 11.6327 5.11336 9.60139C3.83972 8.18535 2.83908 6.5799 1.94688 4.90783C1.32377 3.73999 0.763364 2.53949 0.191202 1.34684C-0.102717 0.732873 0.0958413 0.436341 0.784265 0.431116C1.74832 0.424584 2.71237 0.436341 3.67643 0.424584C4.1885 0.418053 4.51769 0.640125 4.70971 1.11039C5.1826 2.27431 5.74562 3.39251 6.43926 4.44148C6.6535 4.76675 6.87818 5.08548 7.11854 5.39247C7.24787 5.55706 7.40724 5.70729 7.57575 5.83139C7.96764 6.12008 8.26287 6.03125 8.42877 5.57012C8.50715 5.35197 8.5594 5.11945 8.58422 4.88954C8.69003 3.88499 8.70048 2.88044 8.53719 1.87981C8.44575 1.31679 8.12701 0.964089 7.56138 0.838683C7.26224 0.773368 7.24526 0.698909 7.43728 0.46508C7.70508 0.142422 8.0421 -0.00257795 8.46143 3.46599e-05C9.5535 0.00656619 10.6456 0.00264727 11.7363 0.00264727C12.4182 0.00264727 12.7291 0.300485 12.7409 0.983683C12.75 1.55715 12.7435 2.13193 12.7435 2.7067C12.7435 3.42256 12.733 4.13841 12.7513 4.85427C12.7566 5.08287 12.8062 5.32193 12.8911 5.53355C13.0897 6.03125 13.475 6.09657 13.8486 5.71512C14.4574 5.09332 14.976 4.39837 15.3757 3.62895C15.812 2.789 16.2091 1.92684 16.6036 1.06467C16.8414 0.546071 16.9994 0.420665 17.5729 0.420665C18.7003 0.420665 19.8276 0.420665 20.9549 0.425891C21.3011 0.427197 21.6329 0.479449 21.8445 0.807332V1.19008C21.4944 2.28085 20.8178 3.18089 20.1463 4.08355C19.6643 4.73148 19.1758 5.37548 18.6976 6.02733C18.0967 6.84508 18.1307 7.18603 18.8622 7.89404C19.3665 8.3826 19.8864 8.85548 20.3697 9.36364C20.9667 9.99328 21.5833 10.619 21.8445 11.4864V11.6562H21.8432Z" fill="currentColor"/>
</svg>
