<svg width="1920" height="771" viewBox="0 0 1920 771" fill="none" xmlns="http://www.w3.org/2000/svg">
<path opacity="0.15" d="M1468.32 1602.33C1472.63 1603.77 1473.18 1609.65 1469.22 1611.89L1301.67 1706.42C1292.2 1711.77 1280.2 1707.72 1275.89 1697.73L1200.03 1521.83C1198.23 1517.66 1202.21 1513.32 1206.5 1514.76L1468.32 1602.33ZM924.799 1420.53C929.102 1421.97 929.653 1427.84 925.694 1430.08L758.151 1524.61C748.673 1529.96 736.677 1525.92 732.367 1515.92L656.505 1340.02C654.71 1335.85 658.683 1331.51 662.976 1332.95L924.799 1420.53ZM1641.51 1508.07C1650.97 1502.68 1662.98 1506.67 1667.33 1516.64L1744.28 1692.96C1746.1 1697.12 1742.12 1701.49 1737.82 1700.05L1476 1612.47C1471.7 1611.03 1471.14 1605.18 1475.08 1602.93L1641.51 1508.07ZM1097.98 1326.26C1107.43 1320.87 1119.45 1324.86 1123.8 1334.84L1200.75 1511.15C1202.57 1515.32 1198.59 1519.68 1194.29 1518.24L932.465 1430.66C928.171 1429.22 927.609 1423.37 931.549 1421.12L1097.98 1326.26ZM1544.83 1373.6C1549.13 1375.04 1549.68 1380.92 1545.73 1383.15L1378.18 1477.68C1368.7 1483.03 1356.71 1478.99 1352.4 1468.99L1276.54 1293.09C1274.74 1288.93 1278.71 1284.58 1283.01 1286.02L1544.83 1373.6ZM1001.3 1191.79C1005.61 1193.23 1006.16 1199.11 1002.2 1201.34L834.655 1295.87C825.177 1301.22 813.181 1297.18 808.871 1287.19L733.01 1111.28C731.214 1107.12 735.187 1102.78 739.481 1104.21L1001.3 1191.79ZM1718.02 1279.32C1727.48 1273.93 1739.49 1277.92 1743.84 1287.9L1820.79 1464.21C1822.61 1468.38 1818.63 1472.74 1814.33 1471.3L1552.51 1383.72C1548.21 1382.29 1547.65 1376.43 1551.59 1374.18L1718.02 1279.32ZM1174.5 1097.51C1183.95 1092.12 1195.96 1096.11 1200.32 1106.09L1277.26 1282.4C1279.08 1286.57 1275.11 1290.93 1270.8 1289.49L1008.98 1201.91C1004.69 1200.48 1004.12 1194.62 1008.07 1192.37L1174.5 1097.51ZM1621.35 1144.86C1625.65 1146.3 1626.2 1152.18 1622.24 1154.41L1454.7 1248.95C1445.22 1254.3 1433.23 1250.25 1428.92 1240.26L1353.06 1064.36C1351.26 1060.19 1355.23 1055.85 1359.53 1057.29L1621.35 1144.86ZM1077.82 963.053C1082.12 964.493 1082.67 970.37 1078.71 972.604L911.171 1067.14C901.693 1072.48 889.697 1068.44 885.387 1058.45L809.525 882.545C807.729 878.38 811.702 874.039 815.996 875.475L1077.82 963.053ZM1794.53 1050.59C1803.99 1045.2 1816 1049.19 1820.35 1059.16L1897.3 1235.47C1899.12 1239.64 1895.14 1244 1890.84 1242.56L1629.02 1154.99C1624.72 1153.55 1624.16 1147.69 1628.1 1145.45L1794.53 1050.59ZM1251.01 868.778C1260.46 863.389 1272.48 867.378 1276.83 877.353L1353.78 1053.67C1355.59 1057.83 1351.62 1062.19 1347.31 1060.75L1085.49 973.177C1081.2 971.741 1080.64 965.883 1084.58 963.637L1251.01 868.778ZM1693.92 927.895C1698.22 929.335 1698.77 935.212 1694.82 937.446L1527.27 1031.98C1517.79 1037.33 1505.8 1033.28 1501.49 1023.29L1425.63 847.386C1423.83 843.221 1427.8 838.882 1432.1 840.318L1693.92 927.895ZM1150.4 746.088C1154.7 747.528 1155.25 753.404 1151.29 755.638L983.749 850.171C974.271 855.519 962.274 851.477 957.965 841.484L882.104 665.579C880.308 661.414 884.281 657.074 888.575 658.511L1150.4 746.088ZM1323.58 651.816C1333.04 646.427 1345.05 650.417 1349.4 660.391L1426.35 836.704C1428.17 840.87 1424.19 845.233 1419.89 843.793L1158.07 756.216C1153.77 754.779 1153.21 748.922 1157.15 746.677L1323.58 651.816ZM1867.11 833.613C1876.57 828.224 1888.58 832.214 1892.93 842.188L1969.88 1018.5C1971.7 1022.67 1967.72 1027.03 1963.42 1025.59L1701.6 938.013C1697.3 936.576 1696.74 930.719 1700.68 928.473L1867.11 833.613ZM1770.44 699.152C1774.74 700.592 1775.29 706.469 1771.33 708.703L1603.79 803.236C1594.31 808.583 1582.31 804.542 1578 794.548L1502.14 618.643C1500.35 614.478 1504.32 610.139 1508.61 611.575L1770.44 699.152ZM1226.91 517.345C1231.21 518.785 1231.76 524.662 1227.8 526.896L1060.26 621.428C1050.78 626.776 1038.79 622.734 1034.48 612.741L958.615 436.835C956.819 432.671 960.792 428.331 965.086 429.767L1226.91 517.345ZM1400.09 423.071C1409.55 417.682 1421.56 421.671 1425.91 431.645L1502.86 607.958C1504.68 612.125 1500.7 616.487 1496.4 615.048L1234.58 527.47C1230.28 526.034 1229.72 520.176 1233.66 517.93L1400.09 423.071ZM1943.62 604.878C1953.08 599.489 1965.09 603.479 1969.45 613.453L2046.39 789.766C2048.21 793.932 2044.24 798.295 2039.93 796.855L1778.11 709.278C1773.82 707.842 1773.25 701.984 1777.19 699.738L1943.62 604.878ZM1303.42 288.605C1307.72 290.044 1308.27 295.922 1304.32 298.156L1136.77 392.688C1127.29 398.036 1115.3 393.994 1110.99 384.001L1035.13 208.096C1033.33 203.932 1037.3 199.591 1041.6 201.027L1303.42 288.605ZM1846.95 470.412C1851.25 471.852 1851.81 477.729 1847.85 479.963L1680.3 574.496C1670.83 579.844 1658.83 575.802 1654.52 565.809L1578.66 389.904C1576.86 385.739 1580.84 381.399 1585.13 382.835L1846.95 470.412ZM2020.13 376.142C2029.59 370.754 2041.6 374.743 2045.95 384.717L2122.9 561.029C2124.72 565.196 2120.74 569.559 2116.44 568.119L1854.62 480.541C1850.32 479.105 1849.76 473.248 1853.7 471.002L2020.13 376.142ZM1476.6 194.335C1486.06 188.946 1498.07 192.935 1502.43 202.909L1579.37 379.222C1581.19 383.389 1577.22 387.751 1572.91 386.312L1311.09 298.734C1306.8 297.298 1306.23 291.44 1310.17 289.194L1476.6 194.335ZM1919.44 253.63C1923.75 255.07 1924.3 260.947 1920.34 263.181L1752.8 357.713C1743.32 363.061 1731.32 359.019 1727.01 349.026L1651.15 173.121C1649.35 168.956 1653.33 164.616 1657.62 166.053L1919.44 253.63ZM1375.93 71.8218C1380.24 73.2615 1380.79 79.1389 1376.83 81.3729L1209.29 175.906C1199.81 181.253 1187.81 177.211 1183.5 167.218L1107.64 -8.68653C1105.85 -12.8512 1109.82 -17.1918 1114.11 -15.7557L1375.93 71.8218ZM2092.64 159.357C2102.1 153.968 2114.11 157.957 2118.47 167.931L2195.41 344.244C2197.23 348.411 2193.25 352.774 2188.95 351.334L1927.13 263.756C1922.84 262.32 1922.27 256.462 1926.21 254.216L2092.64 159.357ZM1549.13 -22.4507C1558.58 -27.8396 1570.6 -23.8504 1574.95 -13.8763L1651.9 162.437C1653.72 166.603 1649.74 170.966 1645.44 169.526L1383.61 81.9488C1379.32 80.5126 1378.76 74.6557 1382.7 72.4098L1549.13 -22.4507ZM1995.96 24.8974C2000.26 26.3372 2000.81 32.2141 1996.85 34.4482L1829.31 128.981C1819.83 134.329 1807.84 130.287 1803.53 120.293L1727.67 -55.611C1725.87 -59.7757 1729.84 -64.1164 1734.14 -62.6801L1995.96 24.8974ZM1452.43 -156.91C1456.74 -155.47 1457.29 -149.593 1453.33 -147.359L1285.79 -52.8262C1276.31 -47.4784 1264.31 -51.5205 1260 -61.5136L1184.14 -237.418C1182.35 -241.583 1186.32 -245.924 1190.61 -244.487L1452.43 -156.91ZM2169.15 -69.3764C2178.61 -74.7654 2190.62 -70.7762 2194.97 -60.802L2271.92 115.511C2273.74 119.678 2269.76 124.04 2265.46 122.601L2003.64 35.0232C1999.34 33.5869 1998.78 27.7291 2002.72 25.4832L2169.15 -69.3764ZM1625.63 -251.185C1635.08 -256.574 1647.1 -252.584 1651.45 -242.61L1728.4 -66.2971C1730.22 -62.1304 1726.24 -57.7679 1721.93 -59.2075L1460.11 -146.785C1455.82 -148.221 1455.26 -154.078 1459.2 -156.324L1625.63 -251.185ZM2072.47 -203.838C2076.77 -202.398 2077.32 -196.521 2073.36 -194.287L1905.82 -99.7544C1896.34 -94.4065 1884.34 -98.4488 1880.03 -108.442L1804.17 -284.346C1802.38 -288.511 1806.35 -292.852 1810.64 -291.416L2072.47 -203.838ZM1528.95 -385.646C1533.25 -384.206 1533.81 -378.329 1529.85 -376.095L1362.3 -281.562C1352.83 -276.214 1340.83 -280.256 1336.52 -290.25L1260.66 -466.154C1258.86 -470.319 1262.84 -474.659 1267.13 -473.223L1528.95 -385.646ZM2245.66 -298.108C2255.11 -303.497 2267.12 -299.508 2271.48 -289.533L2348.42 -113.221C2350.24 -109.054 2346.27 -104.691 2341.96 -106.131L2080.14 -193.709C2075.85 -195.145 2075.28 -201.003 2079.22 -203.249L2245.66 -298.108ZM1702.15 -479.916C1711.6 -485.304 1723.62 -481.315 1727.97 -471.34L1804.92 -295.028C1806.73 -290.861 1802.76 -286.498 1798.45 -287.938L1536.63 -375.516C1532.34 -376.952 1531.78 -382.81 1535.72 -385.056L1702.15 -479.916ZM2145.05 -420.802C2149.35 -419.363 2149.9 -413.486 2145.94 -411.252L1978.4 -316.719C1968.92 -311.371 1956.93 -315.413 1952.62 -325.406L1876.76 -501.311C1874.96 -505.476 1878.93 -509.816 1883.23 -508.38L2145.05 -420.802ZM1601.52 -602.611C1605.82 -601.171 1606.38 -595.294 1602.42 -593.06L1434.87 -498.528C1425.4 -493.18 1413.4 -497.221 1409.09 -507.214L1333.23 -683.119C1331.43 -687.284 1335.41 -691.625 1339.7 -690.188L1601.52 -602.611ZM2318.25 -515.084C2327.7 -520.473 2339.71 -516.484 2344.07 -506.51L2421.01 -330.197C2422.83 -326.03 2418.86 -321.668 2414.55 -323.107L2152.73 -410.685C2148.44 -412.121 2147.87 -417.979 2151.82 -420.225L2318.25 -515.084ZM1774.71 -696.893C1784.17 -702.282 1796.18 -698.292 1800.54 -688.317L1877.48 -512.006C1879.3 -507.839 1875.33 -503.476 1871.02 -504.916L1609.2 -592.494C1604.91 -593.93 1604.34 -599.787 1608.28 -602.033L1774.71 -696.893ZM2221.56 -649.544C2225.86 -648.104 2226.41 -642.227 2222.45 -639.993L2054.91 -545.46C2045.43 -540.112 2033.43 -544.154 2029.12 -554.147L1953.26 -730.052C1951.47 -734.217 1955.44 -738.558 1959.73 -737.122L2221.56 -649.544ZM1678.04 -831.355C1682.34 -829.915 1682.89 -824.038 1678.93 -821.804L1511.39 -727.273C1501.91 -721.925 1489.91 -725.966 1485.6 -735.959L1409.74 -911.864C1407.95 -916.029 1411.92 -920.369 1416.22 -918.933L1678.04 -831.355ZM2394.75 -743.809C2404.2 -749.198 2416.22 -745.208 2420.57 -735.234L2497.52 -558.921C2499.34 -554.755 2495.36 -550.392 2491.06 -551.831L2229.23 -639.409C2224.94 -640.845 2224.38 -646.703 2228.32 -648.949L2394.75 -743.809ZM1851.22 -925.622C1860.67 -931.011 1872.69 -927.021 1877.04 -917.047L1953.99 -740.734C1955.8 -736.567 1951.83 -732.205 1947.52 -733.644L1685.7 -821.222C1681.41 -822.658 1680.85 -828.516 1684.79 -830.762L1851.22 -925.622ZM1754.54 -1060.09C1758.84 -1058.65 1759.4 -1052.77 1755.44 -1050.54L1587.89 -956.004C1578.42 -950.657 1566.42 -954.698 1562.11 -964.691L1486.25 -1140.6C1484.45 -1144.76 1488.42 -1149.1 1492.72 -1147.67L1754.54 -1060.09ZM2298.07 -878.28C2302.38 -876.84 2302.93 -870.963 2298.97 -868.729L2131.42 -774.196C2121.95 -768.849 2109.95 -772.89 2105.64 -782.883L2029.78 -958.788C2027.98 -962.953 2031.96 -967.294 2036.25 -965.857L2298.07 -878.28ZM2471.26 -972.549C2480.71 -977.938 2492.73 -973.949 2497.08 -963.975L2574.03 -787.662C2575.84 -783.495 2571.87 -779.132 2567.56 -780.572L2305.74 -868.149C2301.45 -869.586 2300.89 -875.443 2304.83 -877.689L2471.26 -972.549ZM1927.73 -1154.36C1937.19 -1159.75 1949.2 -1155.76 1953.56 -1145.78L2030.5 -969.47C2032.32 -965.303 2028.34 -960.941 2024.04 -962.38L1762.22 -1049.96C1757.93 -1051.39 1757.36 -1057.25 1761.3 -1059.5L1927.73 -1154.36Z" fill="#D7DEE6"/>
<path opacity="0.15" d="M308.328 1455.09C312.632 1456.53 313.183 1462.41 309.223 1464.64L141.68 1559.17C132.202 1564.52 120.206 1560.48 115.896 1550.49L40.0353 1374.58C38.2392 1370.42 42.2127 1366.08 46.5065 1367.51L308.328 1455.09ZM-235.192 1273.28C-230.888 1274.72 -230.337 1280.6 -234.296 1282.83L-401.839 1377.37C-411.317 1382.71 -423.313 1378.67 -427.623 1368.68L-503.485 1192.77C-505.281 1188.61 -501.307 1184.27 -497.014 1185.7L-235.192 1273.28ZM-62.01 1179.02C-52.555 1173.63 -40.5413 1177.62 -36.1883 1187.59L40.7586 1363.91C42.5766 1368.07 38.5999 1372.43 34.296 1370.99L-227.525 1283.42C-231.819 1281.98 -232.381 1276.12 -228.441 1273.88L-62.01 1179.02ZM481.521 1360.83C490.976 1355.44 502.99 1359.43 507.343 1369.4L584.29 1545.71C586.108 1549.88 582.132 1554.24 577.828 1552.8L316.006 1465.22C311.712 1463.79 311.15 1457.93 315.09 1455.68L481.521 1360.83ZM-158.692 1044.55C-154.388 1045.99 -153.837 1051.86 -157.797 1054.1L-325.34 1148.63C-334.818 1153.98 -346.814 1149.94 -351.124 1139.94L-426.984 964.037C-428.78 959.872 -424.807 955.532 -420.513 956.969L-158.692 1044.55ZM384.843 1226.35C389.147 1227.79 389.698 1233.67 385.739 1235.91L218.196 1330.44C208.718 1335.79 196.722 1331.74 192.412 1321.75L116.55 1145.85C114.754 1141.68 118.728 1137.34 123.022 1138.78L384.843 1226.35ZM14.5018 950.27C23.9567 944.881 35.9702 948.871 40.3232 958.845L117.27 1135.16C119.088 1139.32 115.112 1143.69 110.808 1142.25L-151.014 1054.67C-155.307 1053.23 -155.87 1047.38 -151.929 1045.13L14.5018 950.27ZM558.037 1132.08C567.491 1126.69 579.505 1130.68 583.858 1140.65L660.805 1316.97C662.624 1321.13 658.648 1325.49 654.343 1324.06L392.521 1236.48C388.228 1235.04 387.666 1229.18 391.605 1226.94L558.037 1132.08ZM461.359 997.62C465.663 999.06 466.214 1004.94 462.255 1007.17L294.712 1101.7C285.234 1107.05 273.237 1103.01 268.928 1093.02L193.066 917.111C191.27 912.946 195.243 908.607 199.537 910.043L461.359 997.62ZM-82.1721 815.81C-77.8684 817.25 -77.3173 823.127 -81.2766 825.361L-248.82 919.893C-258.298 925.241 -270.294 921.199 -274.603 911.206L-350.465 735.3C-352.261 731.136 -348.288 726.796 -343.994 728.232L-82.1721 815.81ZM634.54 903.343C643.995 897.954 656.01 901.943 660.363 911.917L737.31 1088.23C739.128 1092.4 735.151 1096.76 730.847 1095.32L469.026 1007.74C464.732 1006.31 464.17 1000.45 468.11 998.202L634.54 903.343ZM91.0207 721.534C100.476 716.145 112.489 720.134 116.842 730.108L193.789 906.421C195.608 910.588 191.632 914.951 187.328 913.511L-74.4938 825.933C-78.7876 824.497 -79.3497 818.639 -75.4093 816.393L91.0207 721.534ZM-9.59829 598.844C-5.29441 600.283 -4.74288 606.16 -8.70189 608.395L-176.245 702.927C-185.723 708.275 -197.72 704.234 -202.03 694.24L-277.891 518.335C-279.687 514.17 -275.713 509.83 -271.42 511.266L-9.59829 598.844ZM533.933 780.651C538.237 782.091 538.788 787.968 534.829 790.202L367.286 884.735C357.808 890.083 345.812 886.041 341.502 876.047L265.64 700.143C263.844 695.978 267.818 691.637 272.112 693.074L533.933 780.651ZM163.588 504.572C173.043 499.184 185.056 503.173 189.409 513.147L266.356 689.46C268.175 693.626 264.198 697.989 259.895 696.55L-1.92768 608.972C-6.22118 607.535 -6.78352 601.679 -2.84355 599.433L163.588 504.572ZM707.122 686.369C716.577 680.98 728.591 684.969 732.944 694.943L809.891 871.256C811.709 875.423 807.733 879.786 803.429 878.346L541.608 790.769C537.314 789.332 536.752 783.475 540.692 781.23L707.122 686.369ZM610.441 551.909C614.745 553.348 615.296 559.226 611.337 561.46L443.794 655.992C434.316 661.34 422.319 657.298 418.009 647.305L342.148 471.399C340.353 467.235 344.326 462.895 348.619 464.331L610.441 551.909ZM66.9138 370.1C71.2177 371.54 71.7685 377.417 67.8093 379.651L-99.7336 474.184C-109.212 479.532 -121.208 475.49 -125.518 465.497L-201.379 289.592C-203.175 285.427 -199.201 281.087 -194.908 282.523L66.9138 370.1ZM240.099 275.826C249.554 270.437 261.568 274.427 265.921 284.402L342.868 460.714C344.686 464.881 340.709 469.244 336.405 467.804L74.5841 380.226C70.2903 378.79 69.7281 372.932 73.6685 370.686L240.099 275.826ZM783.631 457.635C793.086 452.246 805.099 456.235 809.452 466.209L886.399 642.522C888.217 646.689 884.24 651.051 879.936 649.612L618.115 562.034C613.822 560.598 613.259 554.74 617.2 552.494L783.631 457.635ZM143.426 141.361C147.729 142.801 148.28 148.678 144.321 150.912L-23.2219 245.445C-32.7 250.792 -44.6961 246.75 -49.0058 236.757L-124.868 60.8525C-126.664 56.688 -122.69 52.3475 -118.397 53.7834L143.426 141.361ZM686.961 323.169C691.264 324.609 691.815 330.486 687.856 332.72L520.314 427.252C510.836 432.599 498.839 428.558 494.529 418.565L418.668 242.66C416.872 238.495 420.845 234.155 425.138 235.591L686.961 323.169ZM316.607 47.0908C326.062 41.7019 338.076 45.691 342.429 55.6652L419.376 231.978C421.194 236.145 417.218 240.507 412.914 239.068L151.092 151.49C146.798 150.054 146.236 144.197 150.176 141.951L316.607 47.0908ZM860.142 228.899C869.597 223.51 881.611 227.499 885.964 237.473L962.911 413.786C964.729 417.953 960.752 422.315 956.448 420.876L694.627 333.298C690.333 331.862 689.771 326.004 693.711 323.758L860.142 228.899ZM759.457 106.386C763.761 107.826 764.312 113.703 760.352 115.937L592.809 210.469C583.331 215.817 571.335 211.776 567.025 201.783L491.164 25.8776C489.368 21.713 493.341 17.3723 497.635 18.8081L759.457 106.386ZM215.941 -75.4217C220.245 -73.9818 220.796 -68.1048 216.837 -65.8709L49.2937 28.6617C39.8155 34.0095 27.8195 29.9676 23.5098 19.9743L-52.3523 -155.93C-54.1484 -160.095 -50.1748 -164.435 -45.8811 -163L215.941 -75.4217ZM932.654 12.1134C942.108 6.72435 954.122 10.7136 958.475 20.6878L1035.42 197.001C1037.24 201.167 1033.26 205.53 1028.96 204.09L767.139 116.513C762.845 115.077 762.283 109.219 766.224 106.973L932.654 12.1134ZM389.134 -169.695C398.589 -175.084 410.603 -171.094 414.956 -161.12L491.903 15.193C493.722 19.3596 489.745 23.7222 485.441 22.2825L223.619 -65.295C219.326 -66.7312 218.763 -72.5891 222.704 -74.835L389.134 -169.695ZM835.968 -122.346C840.272 -120.906 840.823 -115.029 836.864 -112.795L669.321 -18.2627C659.843 -12.915 647.847 -16.9569 643.537 -26.9501L567.676 -202.854C565.88 -207.019 569.853 -211.36 574.147 -209.924L835.968 -122.346ZM292.445 -304.154C296.748 -302.715 297.3 -296.837 293.341 -294.603L125.798 -200.071C116.32 -194.723 104.324 -198.764 100.014 -208.757L24.152 -384.663C22.3562 -388.827 26.3295 -393.168 30.6232 -391.732L292.445 -304.154ZM1009.16 -216.621C1018.62 -222.01 1030.63 -218.02 1034.98 -208.046L1111.93 -31.7327C1113.75 -27.566 1109.77 -23.2032 1105.47 -24.6428L843.647 -112.22C839.353 -113.657 838.791 -119.514 842.731 -121.76L1009.16 -216.621ZM465.634 -398.428C475.089 -403.817 487.103 -399.828 491.456 -389.854L568.403 -213.541C570.221 -209.374 566.245 -205.012 561.941 -206.451L300.119 -294.029C295.826 -295.465 295.263 -301.322 299.203 -303.568L465.634 -398.428ZM912.484 -351.082C916.788 -349.642 917.339 -343.765 913.379 -341.531L745.837 -246.998C736.358 -241.651 724.362 -245.693 720.053 -255.686L644.191 -431.59C642.395 -435.755 646.369 -440.096 650.663 -438.659L912.484 -351.082ZM368.96 -532.889C373.264 -531.45 373.816 -525.572 369.856 -523.338L202.314 -428.806C192.836 -423.459 180.839 -427.5 176.53 -437.493L100.668 -613.398C98.8719 -617.563 102.845 -621.903 107.139 -620.467L368.96 -532.889ZM1085.67 -445.352C1095.12 -450.741 1107.14 -446.751 1111.49 -436.777L1188.44 -260.464C1190.26 -256.297 1186.28 -251.935 1181.98 -253.374L920.154 -340.952C915.861 -342.388 915.298 -348.246 919.238 -350.492L1085.67 -445.352ZM542.154 -627.16C551.609 -632.548 563.622 -628.558 567.975 -618.584L644.922 -442.272C646.741 -438.106 642.765 -433.743 638.461 -435.182L376.64 -522.76C372.346 -524.196 371.783 -530.053 375.724 -532.299L542.154 -627.16ZM441.53 -749.854C445.834 -748.415 446.386 -742.538 442.427 -740.303L274.884 -645.771C265.406 -640.423 253.41 -644.465 249.1 -654.458L173.238 -830.363C171.442 -834.528 175.415 -838.868 179.709 -837.432L441.53 -749.854ZM985.062 -568.046C989.366 -566.606 989.917 -560.73 985.958 -558.496L818.415 -463.963C808.937 -458.615 796.941 -462.657 792.631 -472.65L716.769 -648.555C714.973 -652.72 718.946 -657.059 723.24 -655.623L985.062 -568.046ZM1158.26 -662.329C1167.71 -667.718 1179.72 -663.728 1184.08 -653.753L1261.02 -477.441C1262.84 -473.274 1258.87 -468.911 1254.56 -470.351L992.74 -557.928C988.447 -559.364 987.885 -565.222 991.825 -567.468L1158.26 -662.329ZM614.724 -844.136C624.179 -849.525 636.193 -845.536 640.546 -835.562L717.493 -659.249C719.311 -655.082 715.335 -650.72 711.031 -652.159L449.209 -739.737C444.915 -741.174 444.353 -747.031 448.293 -749.277L614.724 -844.136ZM1061.56 -796.788C1065.87 -795.348 1066.42 -789.471 1062.46 -787.237L894.915 -692.704C885.437 -687.356 873.441 -691.398 869.131 -701.391L793.269 -877.296C791.473 -881.461 795.446 -885.802 799.74 -884.365L1061.56 -796.788ZM518.043 -978.599C522.346 -977.159 522.898 -971.282 518.938 -969.048L351.395 -874.515C341.917 -869.168 329.921 -873.21 325.611 -883.203L249.75 -1059.11C247.954 -1063.27 251.927 -1067.61 256.221 -1066.18L518.043 -978.599ZM1234.76 -891.053C1244.21 -896.442 1256.22 -892.452 1260.58 -882.478L1337.52 -706.165C1339.34 -701.998 1335.37 -697.636 1331.06 -699.075L1069.24 -786.653C1064.95 -788.089 1064.38 -793.947 1068.32 -796.193L1234.76 -891.053ZM691.228 -1072.87C700.683 -1078.25 712.697 -1074.27 717.05 -1064.29L793.997 -887.978C795.815 -883.812 791.838 -879.449 787.534 -880.889L525.713 -968.466C521.419 -969.903 520.857 -975.759 524.797 -978.005L691.228 -1072.87ZM1138.08 -1025.52C1142.39 -1024.08 1142.94 -1018.21 1138.98 -1015.97L971.435 -921.44C961.957 -916.092 949.96 -920.134 945.65 -930.127L869.789 -1106.03C867.993 -1110.2 871.966 -1114.54 876.26 -1113.1L1138.08 -1025.52ZM594.551 -1207.33C598.854 -1205.89 599.405 -1200.02 595.446 -1197.78L427.903 -1103.25C418.425 -1097.9 406.429 -1101.94 402.119 -1111.93L326.258 -1287.84C324.462 -1292 328.435 -1296.35 332.729 -1294.91L594.551 -1207.33ZM1311.27 -1119.79C1320.73 -1125.18 1332.74 -1121.19 1337.09 -1111.22L1414.04 -934.906C1415.86 -930.739 1411.88 -926.376 1407.58 -927.816L1145.76 -1015.39C1141.46 -1016.83 1140.9 -1022.69 1144.84 -1024.93L1311.27 -1119.79ZM767.744 -1301.6C777.199 -1306.99 789.213 -1303 793.566 -1293.03L870.512 -1116.71C872.33 -1112.55 868.354 -1108.18 864.05 -1109.62L602.229 -1197.2C597.935 -1198.64 597.373 -1204.5 601.313 -1206.74L767.744 -1301.6Z" fill="#D7DEE6"/>
</svg>
